<svg width="18" height="18" viewBox="0 0 18 18" fill="none" xmlns="http://www.w3.org/2000/svg">
<path d="M3.70804 14.5988L4.07869 14.2632L4.07233 14.2562L4.06571 14.2494L3.70804 14.5988ZM4.84734 15.8571V16.3571H5.34734V15.8571H4.84734ZM8.83488 16.9799L8.8525 16.4802L8.79957 17.4787L8.83488 16.9799ZM9.40453 9H8.90453C8.90453 9.13234 8.95699 9.25928 9.05042 9.353L9.40453 9ZM16.8796 9C16.8796 13.1436 13.5314 16.5 9.40453 16.5V17.5C14.0867 17.5 17.8796 13.6929 17.8796 9H16.8796ZM9.40453 1.5C13.5314 1.5 16.8796 4.85639 16.8796 9H17.8796C17.8796 4.30705 14.0867 0.5 9.40453 0.5V1.5ZM9.40453 0.5C4.7224 0.5 0.929451 4.30705 0.929451 9H1.92945C1.92945 4.85639 5.27763 1.5 9.40453 1.5V0.5ZM4.06571 14.2494C2.7439 12.8963 1.92945 11.0442 1.92945 9H0.929451C0.929451 11.3153 1.85315 13.4155 3.35038 14.9482L4.06571 14.2494ZM3.3374 14.9344L4.47669 16.1927L5.21799 15.5216L4.07869 14.2632L3.3374 14.9344ZM9.40453 16.5C9.22478 16.5 9.0466 16.4936 8.87019 16.4812L8.79957 17.4787C8.99947 17.4928 9.2012 17.5 9.40453 17.5V16.5ZM9.42215 16.5003L8.8525 16.4802L8.81725 17.4796L9.3869 17.4997L9.42215 16.5003ZM8.90453 3.85714V9H9.90453V3.85714H8.90453ZM9.05042 9.353L12.4683 12.7816L13.1765 12.0756L9.75863 8.647L9.05042 9.353ZM0.859802 16.3571H4.84734V15.3571H0.859802V16.3571ZM5.34734 15.8571V11.8571H4.34734V15.8571H5.34734Z" fill="#222222"/>
</svg>
