<svg width="18" height="18" viewBox="0 0 18 18" fill="none" xmlns="http://www.w3.org/2000/svg">
<path d="M3.92857 15.2857V15.7857H4.92857V15.2857H3.92857ZM13.0714 15.2857V15.7857H14.0714V15.2857H13.0714ZM4.92857 15.2857V14.7141H3.92857V15.2857H4.92857ZM7.85714 11.7857H10.1429V10.7857H7.85714V11.7857ZM13.0714 14.7141V15.2857H14.0714V14.7141H13.0714ZM10.1429 11.7857C11.7603 11.7857 13.0714 13.0967 13.0714 14.7141H14.0714C14.0714 12.5444 12.3125 10.7857 10.1429 10.7857V11.7857ZM4.92857 14.7141C4.92857 13.0967 6.23971 11.7857 7.85714 11.7857V10.7857C5.68748 10.7857 3.92857 12.5444 3.92857 14.7141H4.92857ZM9 3.92857C7.46149 3.92857 6.21429 5.17578 6.21429 6.71429H7.21429C7.21429 5.72806 8.01378 4.92857 9 4.92857V3.92857ZM11.7857 6.71429C11.7857 5.17578 10.5385 3.92857 9 3.92857V4.92857C9.98622 4.92857 10.7857 5.72806 10.7857 6.71429H11.7857ZM9 9.5C10.5385 9.5 11.7857 8.25279 11.7857 6.71429H10.7857C10.7857 7.70051 9.98622 8.5 9 8.5V9.5ZM9 8.5C8.01378 8.5 7.21429 7.70051 7.21429 6.71429H6.21429C6.21429 8.25279 7.46149 9.5 9 9.5V8.5ZM9 16.5C4.85786 16.5 1.5 13.1421 1.5 9H0.5C0.5 13.6944 4.30558 17.5 9 17.5V16.5ZM16.5 9C16.5 13.1421 13.1421 16.5 9 16.5V17.5C13.6944 17.5 17.5 13.6944 17.5 9H16.5ZM9 1.5C13.1421 1.5 16.5 4.85786 16.5 9H17.5C17.5 4.30558 13.6944 0.5 9 0.5V1.5ZM9 0.5C4.30558 0.5 0.5 4.30558 0.5 9H1.5C1.5 4.85786 4.85786 1.5 9 1.5V0.5Z" fill="#222222"/>
</svg>
